<svg width="26" height="26" viewBox="0 0 26 26" fill="none" xmlns="http://www.w3.org/2000/svg">
<path d="M8.49053 11.8625C11.0093 11.8625 13.0812 9.87186 13.0812 7.39374C13.0812 4.91561 11.0093 2.92499 8.49053 2.92499C5.97178 2.92499 3.8999 4.91561 3.8999 7.39374C3.8999 9.87186 5.97178 11.8625 8.49053 11.8625ZM8.49053 4.79374C9.99365 4.79374 11.253 5.97186 11.253 7.43436C11.253 8.89686 10.0343 10.075 8.49053 10.075C6.94678 10.075 5.72803 8.89686 5.72803 7.43436C5.72803 5.97186 6.9874 4.79374 8.49053 4.79374Z" fill="#B50003"/>
<path d="M18.6875 13.8125C20.8812 13.8125 22.6281 12.1063 22.6281 9.95312C22.6281 7.8 20.8406 6.09375 18.6875 6.09375C16.5343 6.09375 14.7468 7.8 14.7468 9.95312C14.7468 12.1063 16.5343 13.8125 18.6875 13.8125ZM18.6875 7.9625C19.8656 7.9625 20.8 8.85625 20.8 9.99375C20.8 11.1312 19.8656 12.025 18.6875 12.025C17.5093 12.025 16.575 11.1312 16.575 9.99375C16.575 8.85625 17.5093 7.9625 18.6875 7.9625Z" fill="#B50003"/>
<path d="M18.8906 14.2187H18.525C17.3062 14.2187 16.1281 14.5844 15.1125 15.1937C14.0156 13.7312 12.2687 12.7562 10.3187 12.7562H6.70308C3.37183 12.7969 0.731201 15.4375 0.731201 18.7281V21.6531C0.731201 22.425 1.34058 23.0344 2.11245 23.0344H23.9281C24.7 23.0344 25.35 22.3844 25.35 21.6125V20.6375C25.3093 17.1031 22.4249 14.2187 18.8906 14.2187ZM2.55933 21.2062V18.7281C2.55933 16.4531 4.42808 14.5844 6.70308 14.5844H10.3187C12.5937 14.5844 14.4625 16.4531 14.4625 18.7281V21.2062H2.55933ZM23.4812 21.2062H16.25V18.7281C16.25 18.0781 16.1281 17.4281 15.925 16.8187C16.6562 16.2906 17.5499 16.0469 18.4843 16.0469H18.85C21.3687 16.0469 23.4406 18.1187 23.4406 20.6375V21.2062H23.4812Z" fill="#B50003"/>
</svg>
