<svg width="64" height="53" viewBox="0 0 64 53" fill="none" xmlns="http://www.w3.org/2000/svg">
<g clip-path="url(#clip0_1_1756)">
<path d="M5.83333 52.5C4.22917 52.5 2.85639 51.9293 1.715 50.7879C0.573611 49.6465 0.00194444 48.2728 0 46.6667V5.83333C0 4.22917 0.571667 2.85639 1.715 1.715C2.85833 0.573611 4.23111 0.00194444 5.83333 0H58.3333C59.9375 0 61.3113 0.571667 62.4546 1.715C63.5979 2.85833 64.1686 4.23111 64.1667 5.83333V46.6667C64.1667 48.2708 63.596 49.6446 62.4546 50.7879C61.3132 51.9312 59.9394 52.5019 58.3333 52.5H5.83333ZM37.9167 40.8333H46.6667C48.2708 40.8333 49.6446 40.2626 50.7879 39.1212C51.9313 37.9799 52.5019 36.6061 52.5 35V26.25C52.5 25.4236 52.22 24.7314 51.66 24.1733C51.1 23.6153 50.4078 23.3353 49.5833 23.3333H46.6667C45.8403 23.3333 45.1481 23.6133 44.59 24.1733C44.0319 24.7333 43.7519 25.4256 43.75 26.25C43.7481 27.0744 44.0281 27.7676 44.59 28.3296C45.1519 28.8915 45.8442 29.1706 46.6667 29.1667V35H37.9167V17.5H52.5C52.5 15.8958 51.9293 14.5231 50.7879 13.3817C49.6465 12.2403 48.2728 11.6686 46.6667 11.6667H37.9167C36.3125 11.6667 34.9397 12.2383 33.7983 13.3817C32.6569 14.525 32.0853 15.8978 32.0833 17.5V35C32.0833 36.6042 32.655 37.9779 33.7983 39.1212C34.9417 40.2646 36.3144 40.8353 37.9167 40.8333ZM23.3333 40.8333C24.9375 40.8333 26.3113 40.2626 27.4546 39.1212C28.5979 37.9799 29.1686 36.6061 29.1667 35V29.1667C29.1667 27.5625 28.596 26.1897 27.4546 25.0483C26.3132 23.9069 24.9394 23.3353 23.3333 23.3333H17.5V17.5H26.25C27.0764 17.5 27.7696 17.22 28.3296 16.66C28.8896 16.1 29.1686 15.4078 29.1667 14.5833C29.1647 13.7589 28.8847 13.0667 28.3267 12.5067C27.7686 11.9467 27.0764 11.6667 26.25 11.6667H14.5833C13.7569 11.6667 13.0647 11.9467 12.5067 12.5067C11.9486 13.0667 11.6686 13.7589 11.6667 14.5833V26.25C11.6667 27.0764 11.9467 27.7696 12.5067 28.3296C13.0667 28.8896 13.7589 29.1686 14.5833 29.1667H23.3333V35H14.5833C13.7569 35 13.0647 35.28 12.5067 35.84C11.9486 36.4 11.6686 37.0922 11.6667 37.9167C11.6647 38.7411 11.9447 39.4343 12.5067 39.9962C13.0686 40.5582 13.7608 40.8372 14.5833 40.8333H23.3333Z" fill="#B50003"/>
</g>
<defs>
<clipPath id="clip0_1_1756">
<rect width="64" height="53" fill="white"/>
</clipPath>
</defs>
</svg>
