<svg width="50" height="40" viewBox="0 0 50 40" fill="none" xmlns="http://www.w3.org/2000/svg">
<path d="M4.54545 40C3.29545 40 2.22576 39.5652 1.33636 38.6956C0.44697 37.8259 0.00151515 36.7793 0 35.5556V4.44444C0 3.22222 0.445455 2.1763 1.33636 1.30667C2.22727 0.437037 3.29697 0.00148148 4.54545 0H45.4545C46.7045 0 47.775 0.435556 48.6659 1.30667C49.5568 2.17778 50.0015 3.2237 50 4.44444V35.5556C50 36.7778 49.5553 37.8244 48.6659 38.6956C47.7765 39.5667 46.7061 40.0015 45.4545 40H4.54545ZM29.5455 31.1111H36.3636C37.6136 31.1111 38.6841 30.6763 39.575 29.8067C40.4659 28.937 40.9106 27.8904 40.9091 26.6667V20C40.9091 19.3704 40.6909 18.843 40.2545 18.4178C39.8182 17.9926 39.2788 17.7793 38.6364 17.7778H36.3636C35.7197 17.7778 35.1803 17.9911 34.7454 18.4178C34.3106 18.8444 34.0924 19.3719 34.0909 20C34.0894 20.6281 34.3076 21.1563 34.7454 21.5844C35.1833 22.0126 35.7227 22.2252 36.3636 22.2222V26.6667H29.5455V13.3333H40.9091C40.9091 12.1111 40.4644 11.0652 39.575 10.1956C38.6856 9.32592 37.6151 8.89037 36.3636 8.88889H29.5455C28.2955 8.88889 27.2258 9.32444 26.3364 10.1956C25.447 11.0667 25.0015 12.1126 25 13.3333V26.6667C25 27.8889 25.4455 28.9356 26.3364 29.8067C27.2273 30.6778 28.297 31.1126 29.5455 31.1111ZM18.1818 31.1111C19.4318 31.1111 20.5023 30.6763 21.3932 29.8067C22.2841 28.937 22.7288 27.8904 22.7273 26.6667V22.2222C22.7273 21 22.2826 19.9541 21.3932 19.0844C20.5038 18.2148 19.4333 17.7793 18.1818 17.7778H13.6364V13.3333H20.4545C21.0985 13.3333 21.6386 13.12 22.075 12.6933C22.5114 12.2667 22.7288 11.7393 22.7273 11.1111C22.7258 10.483 22.5076 9.95555 22.0727 9.52889C21.6379 9.10222 21.0985 8.88889 20.4545 8.88889H11.3636C10.7197 8.88889 10.1803 9.10222 9.74545 9.52889C9.31061 9.95555 9.09242 10.483 9.09091 11.1111V20C9.09091 20.6296 9.30909 21.1578 9.74545 21.5844C10.1818 22.0111 10.7212 22.2237 11.3636 22.2222H18.1818V26.6667H11.3636C10.7197 26.6667 10.1803 26.88 9.74545 27.3067C9.31061 27.7333 9.09242 28.2607 9.09091 28.8889C9.08939 29.517 9.30758 30.0452 9.74545 30.4733C10.1833 30.9015 10.7227 31.1141 11.3636 31.1111H18.1818Z" fill="#B50003"/>
</svg>
